<svg xmlns="http://www.w3.org/2000/svg" viewBox="0 0 64 64">
  <rect width="64" height="64" rx="14" fill="#0f766e"/>
  <path d="M17 34c0-9.4 6.6-16 15-16s15 6.6 15 16" fill="none" stroke="#ffffff" stroke-width="5" stroke-linecap="round"/>
  <path d="M17 34v7c0 3 2 5 5 5h2V33h-2c-3 0-5 2-5 5" fill="#d1fae5"/>
  <path d="M47 34v7c0 3-2 5-5 5h-2V33h2c3 0 5 2 5 5" fill="#d1fae5"/>
  <path d="M40 46c0 4-3 6-8 6h-4" fill="none" stroke="#ffffff" stroke-width="4" stroke-linecap="round"/>
  <circle cx="27" cy="52" r="3" fill="#ffffff"/>
</svg>
